<?xml version="1.0" ?><svg data-name="Layer 1" id="Layer_1" viewBox="0 0 512 512" xmlns="http://www.w3.org/2000/svg">
<g fill="#fff" aria-label="">
    <path d="M454.42,12.45H109.16a6,6,0,0,0-6,6V64H57.58a6,6,0,0,0-6,6V493.52a6,6,0,0,0,6,6H402.84a6,6,0,0,0,6-6V448h45.55a6,6,0,0,0,6-6V18.48A6,6,0,0,0,454.42,12.45Zm-57.62,475H63.61V76.09H396.8v411.4Zm51.59-51.59H408.87V70.06a6,6,0,0,0-6-6H115.2V24.51H448.39Z"/>
    <path d="M347.31,192.3H113.11a6,6,0,0,0,0,12.06h234.2a6,6,0,0,0,0-12.06Z"/>
    <path d="M347.31,246.11H113.11a6,6,0,0,0,0,12.07h234.2a6,6,0,0,0,0-12.07Z"/>
    <path d="M347.31,299.93H113.11a6,6,0,0,0,0,12.07h234.2a6,6,0,0,0,0-12.07Z"/>
    <path d="M347.31,353.76H113.11a6,6,0,0,0,0,12.06h234.2a6,6,0,0,0,0-12.06Z"/>
    <path d="M261.29,407.58H113.11a6,6,0,1,0,0,12.06H261.29a6,6,0,0,0,0-12.06Z"/>
</g>
</svg>